 0
SECTION
 2
ENTITIES
  0
LINE
 8
Grupo#9
10
18.749999999999986
20
7.566987298107779
30
0.0
11
18.85355339059326
21
7.646446609406725
31
0.0
  0
LINE
 8
Grupo#9
10
18.933012701892203
20
7.749999999999998
30
0.0
11
18.982962913144522
21
7.870590477448738
31
0.0
  0
LINE
 8
Grupo#9
10
0.06698729810778373
20
7.749999999999998
30
2.114974861910923e-15
11
0.017037086855466583
21
7.870590477448738
31
1.4099832412739487e-15
  0
LINE
 8
Grupo#9
10
18.982962913144522
20
7.870590477448738
30
0.0
11
18.999999999999986
21
7.999999999999999
31
0.0
  0
LINE
 8
Grupo#9
10
1.9999999999999998
20
7.999999999999999
30
0.0
11
1.0000000000000044
21
7.999999999999999
31
6.168676680573525e-16
  0
LINE
 8
Grupo#9
10
3.5000000000000004
20
1.5
30
0.0
11
3.5000000000000004
21
9.5
31
0.0
  0
LINE
 8
Grupo#9
10
0.14644660940672868
20
7.646446609406725
30
2.3793467196497885e-15
11
0.06698729810778373
21
7.749999999999998
31
2.114974861910923e-15
  0
LINE
 8
Grupo#9
10
18.999999999999986
20
9.5
30
0.0
11
15.499999999999986
21
9.5
31
0.0
  0
LINE
 8
Grupo#9
10
3.5000000000000004
20
9.5
30
0.0
11
7.049916206369744e-16
21
9.5
31
0.0
  0
LINE
 8
Grupo#9
10
1.0000000000000044
20
7.999999999999999
30
6.168676680573525e-16
11
0.9829629131445397
21
7.870590477448738
31
4.846817391879199e-16
  0
LINE
 8
Grupo#9
10
16.99999999999999
20
7.999999999999999
30
0.0
11
17.999999999999982
21
7.999999999999999
31
0.0
  0
LINE
 8
Grupo#9
10
1.9999999999999998
20
0.0
30
0.0
11
1.9999999999999998
21
7.999999999999999
31
0.0
  0
LINE
 8
Grupo#9
10
18.499999999999986
20
7.499999999999997
30
0.0
11
18.629409522551246
21
7.5170370868554635
31
0.0
  0
LINE
 8
Grupo#9
10
18.370590477448726
20
7.5170370868554635
30
0.0
11
18.499999999999986
21
7.499999999999997
31
0.0
  0
LINE
 8
Grupo#9
10
17.999999999999982
20
7.999999999999999
30
0.0
11
18.01703708685545
21
7.870590477448738
31
0.0
  0
LINE
 8
Grupo#9
10
18.06698729810776
20
7.749999999999998
30
0.0
11
18.146446609406713
21
7.646446609406725
31
0.0
  0
LINE
 8
Grupo#9
10
18.249999999999982
20
7.566987298107779
30
0.0
11
18.370590477448726
21
7.5170370868554635
31
0.0
  0
LINE
 8
Grupo#9
10
0.6294095225512641
20
7.5170370868554635
30
2.114974861910923e-15
11
0.500000000000003
21
7.499999999999997
31
4.40619762898109e-16
  0
LINE
 8
Grupo#9
10
18.999999999999986
20
7.999999999999999
30
0.0
11
18.999999999999986
21
9.5
31
0.0
  0
LINE
 8
Grupo#9
10
18.01703708685545
20
7.870590477448738
30
0.0
11
18.06698729810776
21
7.749999999999998
31
0.0
  0
LINE
 8
Grupo#9
10
0.7500000000000056
20
7.566987298107779
30
1.9387269567516795e-15
11
0.6294095225512641
21
7.5170370868554635
31
2.114974861910923e-15
  0
LINE
 8
Grupo#9
10
0.9829629131445397
20
7.870590477448738
30
4.846817391879199e-16
11
0.9330127018922258
21
7.749999999999998
31
3.965577866082981e-16
  0
LINE
 8
Grupo#9
10
15.499999999999986
20
9.5
30
0.0
11
15.499999999999986
21
1.5
31
0.0
  0
LINE
 8
Grupo#9
10
7.049916206369744e-16
20
9.5
30
0.0
11
7.049916206369744e-16
21
7.999999999999999
31
1.9387269567516795e-15
  0
LINE
 8
Grupo#9
10
18.146446609406713
20
7.646446609406725
30
0.0
11
18.249999999999982
21
7.566987298107779
31
0.0
  0
LINE
 8
Grupo#9
10
18.629409522551246
20
7.5170370868554635
30
0.0
11
18.749999999999986
21
7.566987298107779
31
0.0
  0
LINE
 8
Grupo#9
10
18.85355339059326
20
7.646446609406725
30
0.0
11
18.933012701892203
21
7.749999999999998
31
0.0
  0
LINE
 8
Grupo#9
10
0.017037086855466583
20
7.870590477448738
30
1.4099832412739487e-15
11
7.049916206369744e-16
21
7.999999999999999
31
1.9387269567516795e-15
  0
LINE
 8
Grupo#9
10
0.3705904774487402
20
7.5170370868554635
30
8.81239525796218e-16
11
0.25000000000000344
21
7.566987298107779
31
1.233735336114705e-15
  0
LINE
 8
Grupo#9
10
0.9330127018922258
20
7.749999999999998
30
3.965577866082981e-16
11
0.8535533905932776
21
7.646446609406725
31
9.693634783758397e-16
  0
LINE
 8
Grupo#9
10
1.9999999999999998
20
0.0
30
0.0
11
16.99999999999999
21
0.0
31
0.0
  0
LINE
 8
Grupo#9
10
0.500000000000003
20
7.499999999999997
30
4.40619762898109e-16
11
0.3705904774487402
21
7.5170370868554635
31
8.81239525796218e-16
  0
LINE
 8
Grupo#9
10
15.499999999999986
20
1.5
30
0.0
11
3.5000000000000004
21
1.5
31
0.0
  0
LINE
 8
Grupo#9
10
16.99999999999999
20
0.0
30
0.0
11
16.99999999999999
21
7.999999999999999
31
0.0
  0
LINE
 8
Grupo#9
10
0.25000000000000344
20
7.566987298107779
30
1.233735336114705e-15
11
0.14644660940672868
21
7.646446609406725
31
2.3793467196497885e-15
  0
LINE
 8
Grupo#9
10
0.8535533905932776
20
7.646446609406725
30
9.693634783758397e-16
11
0.7500000000000056
21
7.566987298107779
31
1.9387269567516795e-15
 0
ENDSEC
 0
EOF
