solid Soporte Sensor
facet normal -1.0 9.037575764291107e-21 -1.2539395982090886e-16
outer loop
vertex 71.99999999999999 5.572383579196434 11.67062859407732
vertex 71.99999999999999 1.127986593019159e-14 0.0
vertex 71.99999999999999 5.639932965095795e-15 3.0
endloop
endfacet
facet normal -1.0 9.037575764291107e-21 -1.2539395982090886e-16
outer loop
vertex 71.99999999999999 1.127986593019159e-14 0.0
vertex 71.99999999999999 5.572383579196434 11.67062859407732
vertex 71.99999999999999 9.541725679407202 7.636038969321079
endloop
endfacet
facet normal -1.0 9.037575764291107e-21 -1.2539395982090886e-16
outer loop
vertex 71.99999999999999 1.127986593019159e-14 0.0
vertex 71.99999999999999 9.541725679407202 7.636038969321079
vertex 71.99999999999999 11.405686710086131 6.205771365940062
endloop
endfacet
facet normal -1.0 9.037575764291107e-21 -1.2539395982090886e-16
outer loop
vertex 71.99999999999999 1.127986593019159e-14 0.0
vertex 71.99999999999999 11.405686710086131 6.205771365940062
vertex 71.99999999999999 13.576315304163444 5.306667563398396
endloop
endfacet
facet normal -1.0 9.037575764291107e-21 -1.2539395982090886e-16
outer loop
vertex 71.99999999999999 1.127986593019159e-14 0.0
vertex 71.99999999999999 13.576315304163444 5.306667563398396
vertex 71.99999999999999 32.00000000000001 2.8199664825478976e-14
endloop
endfacet
facet normal -1.0 9.037575764291107e-21 -1.2539395982090886e-16
outer loop
vertex 71.99999999999999 9.541725679407202 7.636038969321079
vertex 71.99999999999999 5.572383579196434 11.67062859407732
vertex 72.0 8.878785064005129 8.500000000000016
endloop
endfacet
facet normal -1.0 9.037575764291107e-21 -1.2539395982090886e-16
outer loop
vertex 72.0 8.878785064005129 8.500000000000016
vertex 71.99999999999999 5.572383579196434 11.67062859407732
vertex 71.99999999999999 8.11145807602618 9.50000000000001
endloop
endfacet
facet normal -1.0 9.037575764291107e-21 -1.2539395982090886e-16
outer loop
vertex 71.99999999999999 8.11145807602618 9.50000000000001
vertex 71.99999999999999 5.572383579196434 11.67062859407732
vertex 71.99999999999999 7.212354273484508 11.670628594077323
endloop
endfacet
facet normal -1.0 9.037575764291107e-21 -1.2539395982090886e-16
outer loop
vertex 71.99999999999999 32.00000000000001 2.8199664825478976e-14
vertex 71.99999999999999 13.576315304163444 5.306667563398396
vertex 71.99999999999999 15.905686710086135 5.000000000000013
endloop
endfacet
facet normal -1.0 9.037575764291107e-21 -1.2539395982090886e-16
outer loop
vertex 71.99999999999999 32.00000000000001 2.8199664825478976e-14
vertex 71.99999999999999 15.905686710086135 5.000000000000013
vertex 71.99999999999999 18.235058116008826 5.306667563398402
endloop
endfacet
facet normal -1.0 9.037575764291107e-21 -1.2539395982090886e-16
outer loop
vertex 71.99999999999999 32.00000000000001 2.8199664825478976e-14
vertex 71.99999999999999 18.235058116008826 5.306667563398402
vertex 71.99999999999999 20.405686710086133 6.20577136594007
endloop
endfacet
facet normal -1.0 9.037575764291107e-21 -1.2539395982090886e-16
outer loop
vertex 71.99999999999999 32.00000000000001 2.8199664825478976e-14
vertex 71.99999999999999 20.405686710086133 6.20577136594007
vertex 71.99999999999999 22.26964774076506 7.636038969321093
endloop
endfacet
facet normal -1.0 9.037575764291107e-21 -1.2539395982090886e-16
outer loop
vertex 71.99999999999999 32.00000000000001 2.8199664825478976e-14
vertex 71.99999999999999 22.26964774076506 7.636038969321093
vertex 72.0 22.932588356167116 8.500000000000018
endloop
endfacet
facet normal -1.0 9.037575764291107e-21 -1.2539395982090886e-16
outer loop
vertex 71.99999999999999 32.00000000000001 2.8199664825478976e-14
vertex 72.0 22.932588356167116 8.500000000000018
vertex 71.99999999999999 23.699915344146078 9.50000000000002
endloop
endfacet
facet normal -1.0 9.037575764291107e-21 -1.2539395982090886e-16
outer loop
vertex 71.99999999999999 32.00000000000001 2.8199664825478976e-14
vertex 71.99999999999999 23.699915344146078 9.50000000000002
vertex 71.99999999999999 24.59901914668774 11.670628594077334
endloop
endfacet
facet normal -1.0 9.037575764291107e-21 -1.2539395982090886e-16
outer loop
vertex 71.99999999999999 32.00000000000001 2.8199664825478976e-14
vertex 71.99999999999999 24.59901914668774 11.670628594077334
vertex 71.99999999999999 26.325981256237938 11.670628594077334
endloop
endfacet
facet normal -1.0 9.037575764291107e-21 -1.2539395982090886e-16
outer loop
vertex 71.99999999999999 32.00000000000001 2.8199664825478976e-14
vertex 71.99999999999999 26.325981256237938 11.670628594077334
vertex 71.99999999999999 32.0 3.0000000000000284
endloop
endfacet
facet normal 2.6611382443827375e-16 -6.393034250133191e-16 -1.0
outer loop
vertex 121.0 3.0000000000000058 3.0000000000000115
vertex 75.0 5.639932965095795e-15 3.0
vertex 74.99999999999999 3.0000000000000058 3.0
endloop
endfacet
facet normal 2.6611382443827375e-16 -6.393034250133191e-16 -1.0
outer loop
vertex 75.0 5.639932965095795e-15 3.0
vertex 121.0 3.0000000000000058 3.0000000000000115
vertex 121.0 5.639932965095795e-15 3.0000000000000115
endloop
endfacet
facet normal -4.838280574227559e-16 0.83675907904495 0.5475712224321573
outer loop
vertex 71.99999999999999 26.325981256237938 11.670628594077334
vertex 74.99999999999999 32.0 3.0000000000000284
vertex 71.99999999999999 32.0 3.0000000000000284
endloop
endfacet
facet normal -4.838280574227559e-16 0.83675907904495 0.5475712224321573
outer loop
vertex 74.99999999999999 32.0 3.0000000000000284
vertex 71.99999999999999 26.325981256237938 11.670628594077334
vertex 75.0 26.325981256237938 11.670628594077337
endloop
endfacet
facet normal -5.924223085090334e-16 -0.7933533402912357 0.6087614290087199
outer loop
vertex 75.0 22.932588356167116 8.500000000000018
vertex 71.99999999999999 22.26964774076506 7.636038969321093
vertex 75.0 22.26964774076506 7.636038969321093
endloop
endfacet
facet normal -3.99112838519341e-16 -0.7071067811865479 0.7071067811865471
outer loop
vertex 71.99999999999999 22.26964774076506 7.636038969321093
vertex 75.0 22.932588356167116 8.500000000000018
vertex 72.0 22.932588356167116 8.500000000000018
endloop
endfacet
facet normal -5.924223085090334e-16 -0.7933533402912357 0.6087614290087199
outer loop
vertex 72.0 22.932588356167116 8.500000000000018
vertex 75.0 22.932588356167116 8.500000000000018
vertex 75.0 23.699915344146078 9.500000000000028
endloop
endfacet
facet normal -5.924223085090334e-16 -0.7933533402912357 0.6087614290087199
outer loop
vertex 72.0 22.932588356167116 8.500000000000018
vertex 75.0 23.699915344146078 9.500000000000028
vertex 71.99999999999999 23.699915344146078 9.50000000000002
endloop
endfacet
facet normal -1.660771160915766e-15 -8.881784197001241e-16 1.0
outer loop
vertex 75.0 24.59901914668774 11.670628594077337
vertex 71.99999999999999 26.325981256237938 11.670628594077334
vertex 71.99999999999999 24.59901914668774 11.670628594077334
endloop
endfacet
facet normal -1.660771160915766e-15 -8.881784197001241e-16 1.0
outer loop
vertex 71.99999999999999 26.325981256237938 11.670628594077334
vertex 75.0 24.59901914668774 11.670628594077337
vertex 75.0 26.325981256237938 11.670628594077337
endloop
endfacet
facet normal -4.189150507233105e-16 -0.8412487257985329 0.5406482972712899
outer loop
vertex 75.0 5.572383579196434 11.670628594077323
vertex 71.99999999999999 5.639932965095795e-15 3.0
vertex 75.0 5.639932965095795e-15 3.0
endloop
endfacet
facet normal -4.189150507233105e-16 -0.8412487257985329 0.5406482972712899
outer loop
vertex 71.99999999999999 5.639932965095795e-15 3.0
vertex 75.0 5.572383579196434 11.670628594077323
vertex 71.99999999999999 5.572383579196434 11.67062859407732
endloop
endfacet
facet normal -4.920502056179874e-16 -0.8660254037844393 0.4999999999999991
outer loop
vertex 75.0 23.699915344146078 9.500000000000028
vertex 71.99999999999999 24.59901914668774 11.670628594077334
vertex 71.99999999999999 23.699915344146078 9.50000000000002
endloop
endfacet
facet normal -3.8325898728672763e-16 -0.9238795325112871 0.3826834323650889
outer loop
vertex 71.99999999999999 24.59901914668774 11.670628594077334
vertex 75.0 23.699915344146078 9.500000000000028
vertex 75.0 24.59901914668774 11.670628594077337
endloop
endfacet
facet normal -2.1717967179630042e-16 0.49999999999999906 0.8660254037844393
outer loop
vertex 75.0 11.405686710086131 6.205771365940062
vertex 71.99999999999999 13.576315304163444 5.306667563398396
vertex 71.99999999999999 11.405686710086131 6.205771365940062
endloop
endfacet
facet normal -2.422378503098807e-16 0.25881904510252 0.9659258262890686
outer loop
vertex 71.99999999999999 13.576315304163444 5.306667563398396
vertex 75.0 11.405686710086131 6.205771365940062
vertex 75.0 13.576315304163444 5.306667563398396
endloop
endfacet
facet normal -1.8075151528321254e-20 -1.0 -8.881784197001252e-16
outer loop
vertex 121.0 3.0000000000000115 1.6919798895287383e-14
vertex 74.99999999999999 3.0000000000000058 3.0
vertex 74.99999999999999 3.0000000000000115 5.639932965095795e-15
endloop
endfacet
facet normal -1.8075151528321254e-20 -1.0 -8.881784197001252e-16
outer loop
vertex 74.99999999999999 3.0000000000000058 3.0
vertex 121.0 3.0000000000000115 1.6919798895287383e-14
vertex 121.0 3.0000000000000058 3.0000000000000115
endloop
endfacet
facet normal -2.422472066967979e-16 -0.25881904510252224 0.9659258262890681
outer loop
vertex 75.0 18.235058116008826 5.306667563398402
vertex 71.99999999999999 20.405686710086133 6.20577136594007
vertex 71.99999999999999 18.235058116008826 5.306667563398402
endloop
endfacet
facet normal -2.171977469478288e-16 -0.5000000000000012 0.8660254037844382
outer loop
vertex 71.99999999999999 20.405686710086133 6.20577136594007
vertex 75.0 18.235058116008826 5.306667563398402
vertex 75.0 20.405686710086133 6.205771365940072
endloop
endfacet
facet normal -2.422378503098807e-16 0.25881904510252 0.9659258262890686
outer loop
vertex 75.0 13.576315304163444 5.306667563398396
vertex 71.99999999999999 15.905686710086135 5.000000000000013
vertex 71.99999999999999 13.576315304163444 5.306667563398396
endloop
endfacet
facet normal -2.5078791964181776e-16 -1.033688747895041e-15 1.0
outer loop
vertex 71.99999999999999 15.905686710086135 5.000000000000013
vertex 75.0 13.576315304163444 5.306667563398396
vertex 75.0 15.905686710086135 5.000000000000013
endloop
endfacet
facet normal -3.69714498860143e-16 0.7933533402912358 0.6087614290087199
outer loop
vertex 72.0 8.878785064005129 8.500000000000016
vertex 75.0 9.541725679407202 7.636038969321079
vertex 71.99999999999999 9.541725679407202 7.636038969321079
endloop
endfacet
facet normal -2.867869668362663e-16 0.7071067811865475 0.7071067811865476
outer loop
vertex 75.0 9.541725679407202 7.636038969321079
vertex 72.0 8.878785064005129 8.500000000000016
vertex 75.0 8.878785064005129 8.500000000000016
endloop
endfacet
facet normal -3.69714498860143e-16 0.7933533402912358 0.6087614290087199
outer loop
vertex 75.0 8.878785064005129 8.500000000000016
vertex 72.0 8.878785064005129 8.500000000000016
vertex 71.99999999999999 8.11145807602618 9.50000000000001
endloop
endfacet
facet normal -3.69714498860143e-16 0.7933533402912358 0.6087614290087199
outer loop
vertex 75.0 8.878785064005129 8.500000000000016
vertex 71.99999999999999 8.11145807602618 9.50000000000001
vertex 75.0 8.11145807602618 9.500000000000016
endloop
endfacet
facet normal 1.0 9.317615090509326e-17 -5.041551035754152e-16
outer loop
vertex 74.99999999999999 3.0000000000000058 3.0
vertex 75.0 5.572383579196434 11.670628594077323
vertex 75.0 5.639932965095795e-15 3.0
endloop
endfacet
facet normal 1.0 9.317615090509326e-17 -5.041551035754152e-16
outer loop
vertex 75.0 5.572383579196434 11.670628594077323
vertex 74.99999999999999 3.0000000000000058 3.0
vertex 74.99999999999999 3.0000000000000115 5.639932965095795e-15
endloop
endfacet
facet normal 1.0 9.317615090509326e-17 -5.041551035754152e-16
outer loop
vertex 75.0 5.572383579196434 11.670628594077323
vertex 74.99999999999999 3.0000000000000115 5.639932965095795e-15
vertex 75.0 9.541725679407202 7.636038969321079
endloop
endfacet
facet normal 1.0 9.317615090509326e-17 -5.041551035754152e-16
outer loop
vertex 75.0 9.541725679407202 7.636038969321079
vertex 74.99999999999999 3.0000000000000115 5.639932965095795e-15
vertex 75.0 11.405686710086131 6.205771365940062
endloop
endfacet
facet normal 1.0 9.317615090509326e-17 -5.041551035754152e-16
outer loop
vertex 75.0 11.405686710086131 6.205771365940062
vertex 74.99999999999999 3.0000000000000115 5.639932965095795e-15
vertex 75.0 13.576315304163444 5.306667563398396
endloop
endfacet
facet normal 1.0 9.317615090509326e-17 -5.041551035754152e-16
outer loop
vertex 75.0 13.576315304163444 5.306667563398396
vertex 74.99999999999999 3.0000000000000115 5.639932965095795e-15
vertex 74.99999999999999 29.000000000000004 2.8199664825478976e-14
endloop
endfacet
facet normal 1.0 9.317615090509326e-17 -5.041551035754152e-16
outer loop
vertex 75.0 5.572383579196434 11.670628594077323
vertex 75.0 9.541725679407202 7.636038969321079
vertex 75.0 8.878785064005129 8.500000000000016
endloop
endfacet
facet normal 1.0 9.317615090509326e-17 -5.041551035754152e-16
outer loop
vertex 75.0 5.572383579196434 11.670628594077323
vertex 75.0 8.878785064005129 8.500000000000016
vertex 75.0 8.11145807602618 9.500000000000016
endloop
endfacet
facet normal 1.0 9.317615090509326e-17 -5.041551035754152e-16
outer loop
vertex 75.0 5.572383579196434 11.670628594077323
vertex 75.0 8.11145807602618 9.500000000000016
vertex 75.0 7.212354273484508 11.670628594077327
endloop
endfacet
facet normal 1.0 9.317615090509326e-17 -5.041551035754152e-16
outer loop
vertex 75.0 13.576315304163444 5.306667563398396
vertex 74.99999999999999 29.000000000000004 2.8199664825478976e-14
vertex 75.0 15.905686710086135 5.000000000000013
endloop
endfacet
facet normal 1.0 9.317615090509326e-17 -5.041551035754152e-16
outer loop
vertex 75.0 15.905686710086135 5.000000000000013
vertex 74.99999999999999 29.000000000000004 2.8199664825478976e-14
vertex 75.0 18.235058116008826 5.306667563398402
endloop
endfacet
facet normal 1.0 9.317615090509326e-17 -5.041551035754152e-16
outer loop
vertex 75.0 18.235058116008826 5.306667563398402
vertex 74.99999999999999 29.000000000000004 2.8199664825478976e-14
vertex 75.0 20.405686710086133 6.205771365940072
endloop
endfacet
facet normal 1.0 9.317615090509326e-17 -5.041551035754152e-16
outer loop
vertex 75.0 20.405686710086133 6.205771365940072
vertex 74.99999999999999 29.000000000000004 2.8199664825478976e-14
vertex 75.0 22.26964774076506 7.636038969321093
endloop
endfacet
facet normal 1.0 9.317615090509326e-17 -5.041551035754152e-16
outer loop
vertex 75.0 22.26964774076506 7.636038969321093
vertex 74.99999999999999 29.000000000000004 2.8199664825478976e-14
vertex 75.0 22.932588356167116 8.500000000000018
endloop
endfacet
facet normal 1.0 9.317615090509326e-17 -5.041551035754152e-16
outer loop
vertex 75.0 22.932588356167116 8.500000000000018
vertex 74.99999999999999 29.000000000000004 2.8199664825478976e-14
vertex 75.0 23.699915344146078 9.500000000000028
endloop
endfacet
facet normal 1.0 9.317615090509326e-17 -5.041551035754152e-16
outer loop
vertex 75.0 23.699915344146078 9.500000000000028
vertex 74.99999999999999 29.000000000000004 2.8199664825478976e-14
vertex 75.0 24.59901914668774 11.670628594077337
endloop
endfacet
facet normal 1.0 9.317615090509326e-17 -5.041551035754152e-16
outer loop
vertex 75.0 24.59901914668774 11.670628594077337
vertex 74.99999999999999 29.000000000000004 2.8199664825478976e-14
vertex 75.0 26.325981256237938 11.670628594077337
endloop
endfacet
facet normal 1.0 9.317615090509326e-17 -5.041551035754152e-16
outer loop
vertex 75.0 26.325981256237938 11.670628594077337
vertex 74.99999999999999 29.000000000000004 2.8199664825478976e-14
vertex 74.99999999999999 28.999999999999996 3.0000000000000284
endloop
endfacet
facet normal 1.0 9.317615090509326e-17 -5.041551035754152e-16
outer loop
vertex 74.99999999999999 32.0 3.0000000000000284
vertex 75.0 26.325981256237938 11.670628594077337
vertex 74.99999999999999 28.999999999999996 3.0000000000000284
endloop
endfacet
facet normal -2.1719774694782872e-16 -0.5000000000000012 0.8660254037844379
outer loop
vertex 75.0 20.405686710086133 6.205771365940072
vertex 71.99999999999999 22.26964774076506 7.636038969321093
vertex 71.99999999999999 20.405686710086133 6.20577136594007
endloop
endfacet
facet normal -3.99112838519341e-16 -0.7071067811865479 0.7071067811865471
outer loop
vertex 71.99999999999999 22.26964774076506 7.636038969321093
vertex 75.0 20.405686710086133 6.205771365940072
vertex 75.0 22.26964774076506 7.636038969321093
endloop
endfacet
facet normal -2.867869668362663e-16 0.7071067811865475 0.7071067811865476
outer loop
vertex 75.0 9.541725679407202 7.636038969321079
vertex 71.99999999999999 11.405686710086131 6.205771365940062
vertex 71.99999999999999 9.541725679407202 7.636038969321079
endloop
endfacet
facet normal -2.1717967179630042e-16 0.49999999999999906 0.8660254037844393
outer loop
vertex 71.99999999999999 11.405686710086131 6.205771365940062
vertex 75.0 9.541725679407202 7.636038969321079
vertex 75.0 11.405686710086131 6.205771365940062
endloop
endfacet
facet normal 2.6611382443827375e-16 7.706798162606298e-16 -1.0
outer loop
vertex 121.0 32.0 3.0000000000000395
vertex 74.99999999999999 28.999999999999996 3.0000000000000284
vertex 74.99999999999999 32.0 3.0000000000000284
endloop
endfacet
facet normal 2.6611382443827375e-16 7.706798162606298e-16 -1.0
outer loop
vertex 74.99999999999999 28.999999999999996 3.0000000000000284
vertex 121.0 32.0 3.0000000000000395
vertex 121.0 28.999999999999996 3.0000000000000395
endloop
endfacet
facet normal 1.8075151528343354e-20 1.0 8.000544671205034e-16
outer loop
vertex 74.99999999999999 28.999999999999996 3.0000000000000284
vertex 121.0 29.000000000000004 3.947953075567056e-14
vertex 74.99999999999999 29.000000000000004 2.8199664825478976e-14
endloop
endfacet
facet normal 1.8075151528343354e-20 1.0 8.000544671205034e-16
outer loop
vertex 121.0 29.000000000000004 3.947953075567056e-14
vertex 74.99999999999999 28.999999999999996 3.0000000000000284
vertex 121.0 28.999999999999996 3.0000000000000395
endloop
endfacet
facet normal -3.7184172825711283e-16 0.9238795325112862 0.3826834323650911
outer loop
vertex 71.99999999999999 7.212354273484508 11.670628594077323
vertex 75.0 8.11145807602618 9.500000000000016
vertex 71.99999999999999 8.11145807602618 9.50000000000001
endloop
endfacet
facet normal -3.7397754328450867e-16 0.8660254037844387 0.5000000000000001
outer loop
vertex 75.0 8.11145807602618 9.500000000000016
vertex 71.99999999999999 7.212354273484508 11.670628594077323
vertex 75.0 7.212354273484508 11.670628594077327
endloop
endfacet
facet normal -1.0 -7.662105760601037e-20 -1.7140913034218572e-16
outer loop
vertex 121.0 32.0 3.0000000000000395
vertex 121.0 28.999999999999996 3.0000000000000395
vertex 121.0 26.325981256237938 11.670628594077352
endloop
endfacet
facet normal -1.0 -7.662105760601037e-20 -1.7140913034218572e-16
outer loop
vertex 121.0 5.572383579196434 11.670628594077332
vertex 121.0 3.0000000000000058 3.0000000000000115
vertex 121.0 5.639932965095795e-15 3.0000000000000115
endloop
endfacet
facet normal -1.0 -7.662105760601037e-20 -1.7140913034218572e-16
outer loop
vertex 121.0 3.0000000000000058 3.0000000000000115
vertex 121.0 5.572383579196434 11.670628594077332
vertex 121.0 3.0000000000000115 1.6919798895287383e-14
endloop
endfacet
facet normal -1.0 -7.662105760601037e-20 -1.7140913034218572e-16
outer loop
vertex 121.0 3.0000000000000115 1.6919798895287383e-14
vertex 121.0 5.572383579196434 11.670628594077332
vertex 121.0 9.541725679407202 7.63603896932109
endloop
endfacet
facet normal -1.0 -7.662105760601037e-20 -1.7140913034218572e-16
outer loop
vertex 121.0 3.0000000000000115 1.6919798895287383e-14
vertex 121.0 9.541725679407202 7.63603896932109
vertex 121.0 11.405686710086131 6.205771365940072
endloop
endfacet
facet normal -1.0 -7.662105760601037e-20 -1.7140913034218572e-16
outer loop
vertex 121.0 3.0000000000000115 1.6919798895287383e-14
vertex 121.0 11.405686710086131 6.205771365940072
vertex 121.0 13.576315304163444 5.306667563398413
endloop
endfacet
facet normal -1.0 -7.662105760601037e-20 -1.7140913034218572e-16
outer loop
vertex 121.0 3.0000000000000115 1.6919798895287383e-14
vertex 121.0 13.576315304163444 5.306667563398413
vertex 121.0 29.000000000000004 3.947953075567056e-14
endloop
endfacet
facet normal -1.0 -7.662105760601037e-20 -1.7140913034218572e-16
outer loop
vertex 121.0 9.541725679407202 7.63603896932109
vertex 121.0 5.572383579196434 11.670628594077332
vertex 121.0 8.878785064005129 8.500000000000027
endloop
endfacet
facet normal -1.0 -7.662105760601037e-20 -1.7140913034218572e-16
outer loop
vertex 121.0 8.878785064005129 8.500000000000027
vertex 121.0 5.572383579196434 11.670628594077332
vertex 121.0 8.11145807602618 9.500000000000025
endloop
endfacet
facet normal -1.0 -7.662105760601037e-20 -1.7140913034218572e-16
outer loop
vertex 121.0 8.11145807602618 9.500000000000025
vertex 121.0 5.572383579196434 11.670628594077332
vertex 121.0 7.212354273484508 11.670628594077339
endloop
endfacet
facet normal -1.0 -7.662105760601037e-20 -1.7140913034218572e-16
outer loop
vertex 121.0 29.000000000000004 3.947953075567056e-14
vertex 121.0 13.576315304163444 5.306667563398413
vertex 121.0 15.905686710086135 5.0000000000000275
endloop
endfacet
facet normal -1.0 -7.662105760601037e-20 -1.7140913034218572e-16
outer loop
vertex 121.0 29.000000000000004 3.947953075567056e-14
vertex 121.0 15.905686710086135 5.0000000000000275
vertex 121.0 18.235058116008826 5.306667563398416
endloop
endfacet
facet normal -1.0 -7.662105760601037e-20 -1.7140913034218572e-16
outer loop
vertex 121.0 29.000000000000004 3.947953075567056e-14
vertex 121.0 18.235058116008826 5.306667563398416
vertex 121.0 20.405686710086133 6.205771365940087
endloop
endfacet
facet normal -1.0 -7.662105760601037e-20 -1.7140913034218572e-16
outer loop
vertex 121.0 29.000000000000004 3.947953075567056e-14
vertex 121.0 20.405686710086133 6.205771365940087
vertex 121.0 22.26964774076506 7.636038969321107
endloop
endfacet
facet normal -1.0 -7.662105760601037e-20 -1.7140913034218572e-16
outer loop
vertex 121.0 29.000000000000004 3.947953075567056e-14
vertex 121.0 22.26964774076506 7.636038969321107
vertex 121.0 22.932588356167116 8.500000000000036
endloop
endfacet
facet normal -1.0 -7.662105760601037e-20 -1.7140913034218572e-16
outer loop
vertex 121.0 29.000000000000004 3.947953075567056e-14
vertex 121.0 22.932588356167116 8.500000000000036
vertex 121.0 23.699915344146078 9.500000000000034
endloop
endfacet
facet normal -1.0 -7.662105760601037e-20 -1.7140913034218572e-16
outer loop
vertex 121.0 29.000000000000004 3.947953075567056e-14
vertex 121.0 23.699915344146078 9.500000000000034
vertex 121.0 24.59901914668774 11.670628594077348
endloop
endfacet
facet normal -1.0 -7.662105760601037e-20 -1.7140913034218572e-16
outer loop
vertex 121.0 29.000000000000004 3.947953075567056e-14
vertex 121.0 24.59901914668774 11.670628594077348
vertex 121.0 26.325981256237938 11.670628594077352
endloop
endfacet
facet normal -1.0 -7.662105760601037e-20 -1.7140913034218572e-16
outer loop
vertex 121.0 29.000000000000004 3.947953075567056e-14
vertex 121.0 26.325981256237938 11.670628594077352
vertex 121.0 28.999999999999996 3.0000000000000395
endloop
endfacet
facet normal -1.190776747157782e-15 -2.6077009040772418e-15 1.0
outer loop
vertex 75.0 5.572383579196434 11.670628594077323
vertex 71.99999999999999 7.212354273484508 11.670628594077323
vertex 71.99999999999999 5.572383579196434 11.67062859407732
endloop
endfacet
facet normal -1.190776747157782e-15 -2.6077009040772418e-15 1.0
outer loop
vertex 71.99999999999999 7.212354273484508 11.670628594077323
vertex 75.0 5.572383579196434 11.670628594077323
vertex 75.0 7.212354273484508 11.670628594077327
endloop
endfacet
facet normal -2.5078791964181776e-16 -1.033688747895041e-15 1.0
outer loop
vertex 75.0 15.905686710086135 5.000000000000013
vertex 71.99999999999999 18.235058116008826 5.306667563398402
vertex 71.99999999999999 15.905686710086135 5.000000000000013
endloop
endfacet
facet normal -2.422472066967979e-16 -0.25881904510252224 0.9659258262890681
outer loop
vertex 71.99999999999999 18.235058116008826 5.306667563398402
vertex 75.0 15.905686710086135 5.000000000000013
vertex 75.0 18.235058116008826 5.306667563398402
endloop
endfacet
facet normal -2.1717967179630047e-16 0.4999999999999991 0.8660254037844393
outer loop
vertex 178.65000000000003 11.405686710086131 6.205771365940084
vertex 175.65000000000003 13.576315304163444 5.306667563398425
vertex 175.65000000000003 11.405686710086131 6.205771365940084
endloop
endfacet
facet normal -2.4223785030988065e-16 0.2588190451025199 0.9659258262890686
outer loop
vertex 175.65000000000003 13.576315304163444 5.306667563398425
vertex 178.65000000000003 11.405686710086131 6.205771365940084
vertex 178.65000000000003 13.576315304163444 5.306667563398425
endloop
endfacet
facet normal 1.0 1.2673590957785416e-16 -1.7327961723771055e-16
outer loop
vertex 178.65000000000003 1.127986593019159e-14 2.255973186038318e-14
vertex 178.65000000000003 5.572383579196434 11.670628594077348
vertex 178.65000000000003 5.639932965095795e-15 3.0000000000000226
endloop
endfacet
facet normal 1.0 1.2673590957785416e-16 -1.7327961723771055e-16
outer loop
vertex 178.65000000000003 5.572383579196434 11.670628594077348
vertex 178.65000000000003 1.127986593019159e-14 2.255973186038318e-14
vertex 178.65000000000003 9.541725679407202 7.636038969321104
endloop
endfacet
facet normal 1.0 1.2673590957785416e-16 -1.7327961723771055e-16
outer loop
vertex 178.65000000000003 9.541725679407202 7.636038969321104
vertex 178.65000000000003 1.127986593019159e-14 2.255973186038318e-14
vertex 178.65000000000003 11.405686710086131 6.205771365940084
endloop
endfacet
facet normal 1.0 1.2673590957785416e-16 -1.7327961723771055e-16
outer loop
vertex 178.65000000000003 11.405686710086131 6.205771365940084
vertex 178.65000000000003 1.127986593019159e-14 2.255973186038318e-14
vertex 178.65000000000003 13.576315304163444 5.306667563398425
endloop
endfacet
facet normal 1.0 1.2673590957785416e-16 -1.7327961723771055e-16
outer loop
vertex 178.65000000000003 13.576315304163444 5.306667563398425
vertex 178.65000000000003 1.127986593019159e-14 2.255973186038318e-14
vertex 178.65000000000003 32.00000000000001 5.0759396685862156e-14
endloop
endfacet
facet normal 1.0 1.2673590957785416e-16 -1.7327961723771055e-16
outer loop
vertex 178.65000000000003 5.572383579196434 11.670628594077348
vertex 178.65000000000003 9.541725679407202 7.636038969321104
vertex 178.65000000000003 8.878785064005129 8.500000000000037
endloop
endfacet
facet normal 1.0 1.2673590957785416e-16 -1.7327961723771055e-16
outer loop
vertex 178.65000000000003 5.572383579196434 11.670628594077348
vertex 178.65000000000003 8.878785064005129 8.500000000000037
vertex 178.65000000000003 8.11145807602618 9.500000000000043
endloop
endfacet
facet normal 1.0 1.2673590957785416e-16 -1.7327961723771055e-16
outer loop
vertex 178.65000000000003 5.572383579196434 11.670628594077348
vertex 178.65000000000003 8.11145807602618 9.500000000000043
vertex 178.65000000000003 7.212354273484508 11.670628594077352
endloop
endfacet
facet normal 1.0 1.2673590957785416e-16 -1.7327961723771055e-16
outer loop
vertex 178.65000000000003 13.576315304163444 5.306667563398425
vertex 178.65000000000003 32.00000000000001 5.0759396685862156e-14
vertex 178.65000000000003 15.905686710086135 5.000000000000042
endloop
endfacet
facet normal 1.0 1.2673590957785416e-16 -1.7327961723771055e-16
outer loop
vertex 178.65000000000003 15.905686710086135 5.000000000000042
vertex 178.65000000000003 32.00000000000001 5.0759396685862156e-14
vertex 178.65000000000003 18.235058116008826 5.3066675633984275
endloop
endfacet
facet normal 1.0 1.2673590957785416e-16 -1.7327961723771055e-16
outer loop
vertex 178.65000000000003 18.235058116008826 5.3066675633984275
vertex 178.65000000000003 32.00000000000001 5.0759396685862156e-14
vertex 178.65000000000003 20.405686710086133 6.205771365940098
endloop
endfacet
facet normal 1.0 1.2673590957785416e-16 -1.7327961723771055e-16
outer loop
vertex 178.65000000000003 20.405686710086133 6.205771365940098
vertex 178.65000000000003 32.00000000000001 5.0759396685862156e-14
vertex 178.65000000000003 22.26964774076506 7.636038969321121
endloop
endfacet
facet normal 1.0 1.2673590957785416e-16 -1.7327961723771055e-16
outer loop
vertex 178.65000000000003 22.26964774076506 7.636038969321121
vertex 178.65000000000003 32.00000000000001 5.0759396685862156e-14
vertex 178.65000000000003 22.932588356167116 8.500000000000046
endloop
endfacet
facet normal 1.0 1.2673590957785416e-16 -1.7327961723771055e-16
outer loop
vertex 178.65000000000003 22.932588356167116 8.500000000000046
vertex 178.65000000000003 32.00000000000001 5.0759396685862156e-14
vertex 178.65000000000003 23.699915344146078 9.50000000000005
endloop
endfacet
facet normal 1.0 1.2673590957785416e-16 -1.7327961723771055e-16
outer loop
vertex 178.65000000000003 23.699915344146078 9.50000000000005
vertex 178.65000000000003 32.00000000000001 5.0759396685862156e-14
vertex 178.65000000000003 24.59901914668774 11.670628594077362
endloop
endfacet
facet normal 1.0 1.2673590957785416e-16 -1.7327961723771055e-16
outer loop
vertex 178.65000000000003 24.59901914668774 11.670628594077362
vertex 178.65000000000003 32.00000000000001 5.0759396685862156e-14
vertex 178.65000000000003 26.325981256237938 11.670628594077366
endloop
endfacet
facet normal 1.0 1.2673590957785416e-16 -1.7327961723771055e-16
outer loop
vertex 178.65000000000003 26.325981256237938 11.670628594077366
vertex 178.65000000000003 32.00000000000001 5.0759396685862156e-14
vertex 178.65000000000003 32.0 3.000000000000051
endloop
endfacet
facet normal -4.190494990091468e-16 -0.8412487257985329 0.5406482972712899
outer loop
vertex 178.65000000000003 5.572383579196434 11.670628594077348
vertex 175.65000000000003 5.639932965095795e-15 3.0000000000000226
vertex 178.65000000000003 5.639932965095795e-15 3.0000000000000226
endloop
endfacet
facet normal -4.190494990091468e-16 -0.8412487257985329 0.5406482972712899
outer loop
vertex 175.65000000000003 5.639932965095795e-15 3.0000000000000226
vertex 178.65000000000003 5.572383579196434 11.670628594077348
vertex 175.65000000000003 5.572383579196434 11.670628594077343
endloop
endfacet
facet normal 2.6611382443827375e-16 7.706798162606298e-16 -1.0
outer loop
vertex 175.65000000000003 32.0 3.000000000000051
vertex 129.65 28.999999999999996 3.0000000000000395
vertex 129.65 32.0 3.0000000000000395
endloop
endfacet
facet normal 2.6611382443827375e-16 7.706798162606298e-16 -1.0
outer loop
vertex 129.65 28.999999999999996 3.0000000000000395
vertex 175.65000000000003 32.0 3.000000000000051
vertex 175.65000000000003 28.999999999999996 3.000000000000051
endloop
endfacet
facet normal -2.507879196418178e-16 -1.033688747895041e-15 1.0
outer loop
vertex 178.65000000000003 15.905686710086135 5.000000000000042
vertex 175.65000000000003 18.235058116008826 5.3066675633984275
vertex 175.65000000000003 15.905686710086135 5.000000000000039
endloop
endfacet
facet normal -2.422472066967979e-16 -0.25881904510252224 0.9659258262890681
outer loop
vertex 175.65000000000003 18.235058116008826 5.3066675633984275
vertex 178.65000000000003 15.905686710086135 5.000000000000042
vertex 178.65000000000003 18.235058116008826 5.3066675633984275
endloop
endfacet
facet normal -3.761654905890814e-16 -0.7071067811865479 0.7071067811865471
outer loop
vertex 178.65000000000003 22.26964774076506 7.636038969321121
vertex 175.65000000000003 22.932588356167116 8.500000000000046
vertex 175.65000000000003 22.26964774076506 7.636038969321119
endloop
endfacet
facet normal -5.469202481338065e-16 -0.7933533402912352 0.6087614290087207
outer loop
vertex 175.65000000000003 22.932588356167116 8.500000000000046
vertex 178.65000000000003 22.26964774076506 7.636038969321121
vertex 178.65000000000003 22.932588356167116 8.500000000000046
endloop
endfacet
facet normal -5.469202481338065e-16 -0.7933533402912352 0.6087614290087207
outer loop
vertex 175.65000000000003 22.932588356167116 8.500000000000046
vertex 178.65000000000003 22.932588356167116 8.500000000000046
vertex 178.65000000000003 23.699915344146078 9.50000000000005
endloop
endfacet
facet normal -5.469202481338065e-16 -0.7933533402912352 0.6087614290087207
outer loop
vertex 175.65000000000003 22.932588356167116 8.500000000000046
vertex 178.65000000000003 23.699915344146078 9.50000000000005
vertex 175.65000000000003 23.699915344146078 9.500000000000044
endloop
endfacet
facet normal -4.6910285768772725e-16 -0.8660254037844389 0.4999999999999995
outer loop
vertex 178.65000000000003 23.699915344146078 9.50000000000005
vertex 175.65000000000003 24.59901914668774 11.67062859407736
vertex 175.65000000000003 23.699915344146078 9.500000000000044
endloop
endfacet
facet normal -3.8325898728672763e-16 -0.9238795325112871 0.3826834323650889
outer loop
vertex 175.65000000000003 24.59901914668774 11.67062859407736
vertex 178.65000000000003 23.699915344146078 9.50000000000005
vertex 178.65000000000003 24.59901914668774 11.670628594077362
endloop
endfacet
facet normal -1.660771160915766e-15 -8.881784197001241e-16 1.0
outer loop
vertex 178.65000000000003 24.59901914668774 11.670628594077362
vertex 175.65000000000003 26.325981256237938 11.670628594077362
vertex 175.65000000000003 24.59901914668774 11.67062859407736
endloop
endfacet
facet normal -1.660771160915766e-15 -8.881784197001241e-16 1.0
outer loop
vertex 175.65000000000003 26.325981256237938 11.670628594077362
vertex 178.65000000000003 24.59901914668774 11.670628594077362
vertex 178.65000000000003 26.325981256237938 11.670628594077366
endloop
endfacet
facet normal -5.351118299240474e-16 0.83675907904495 0.5475712224321573
outer loop
vertex 175.65000000000003 26.325981256237938 11.670628594077362
vertex 178.65000000000003 32.0 3.000000000000051
vertex 175.65000000000003 32.0 3.000000000000051
endloop
endfacet
facet normal -5.351118299240474e-16 0.83675907904495 0.5475712224321573
outer loop
vertex 178.65000000000003 32.0 3.000000000000051
vertex 175.65000000000003 26.325981256237938 11.670628594077362
vertex 178.65000000000003 26.325981256237938 11.670628594077366
endloop
endfacet
facet normal -5.735380616454714e-16 0.793353340291236 0.6087614290087194
outer loop
vertex 175.65000000000003 8.878785064005129 8.500000000000037
vertex 178.65000000000003 9.541725679407202 7.636038969321104
vertex 175.65000000000003 9.541725679407202 7.636038969321101
endloop
endfacet
facet normal -3.8957814097322105e-16 0.7071067811865477 0.7071067811865475
outer loop
vertex 178.65000000000003 9.541725679407202 7.636038969321104
vertex 175.65000000000003 8.878785064005129 8.500000000000037
vertex 178.65000000000003 8.878785064005129 8.500000000000037
endloop
endfacet
facet normal -5.735380616454714e-16 0.793353340291236 0.6087614290087194
outer loop
vertex 178.65000000000003 8.878785064005129 8.500000000000037
vertex 175.65000000000003 8.878785064005129 8.500000000000037
vertex 175.65000000000003 8.11145807602618 9.500000000000036
endloop
endfacet
facet normal -5.735380616454714e-16 0.793353340291236 0.6087614290087194
outer loop
vertex 178.65000000000003 8.878785064005129 8.500000000000037
vertex 175.65000000000003 8.11145807602618 9.500000000000036
vertex 178.65000000000003 8.11145807602618 9.500000000000043
endloop
endfacet
facet normal -2.4223785030988065e-16 0.2588190451025199 0.9659258262890686
outer loop
vertex 178.65000000000003 13.576315304163444 5.306667563398425
vertex 175.65000000000003 15.905686710086135 5.000000000000039
vertex 175.65000000000003 13.576315304163444 5.306667563398425
endloop
endfacet
facet normal -2.5078791964181776e-16 -1.033688747895041e-15 1.0
outer loop
vertex 175.65000000000003 15.905686710086135 5.000000000000039
vertex 178.65000000000003 13.576315304163444 5.306667563398425
vertex 178.65000000000003 15.905686710086135 5.000000000000042
endloop
endfacet
facet normal -1.0 -7.662105760601037e-20 -1.7140913034218572e-16
outer loop
vertex 175.65000000000003 32.0 3.000000000000051
vertex 175.65000000000003 28.999999999999996 3.000000000000051
vertex 175.65000000000003 26.325981256237938 11.670628594077362
endloop
endfacet
facet normal -1.0 -7.662105760601037e-20 -1.7140913034218572e-16
outer loop
vertex 175.65000000000003 5.572383579196434 11.670628594077343
vertex 175.65000000000003 3.0000000000000058 3.0000000000000226
vertex 175.65000000000003 5.639932965095795e-15 3.0000000000000226
endloop
endfacet
facet normal -1.0 -7.662105760601037e-20 -1.7140913034218572e-16
outer loop
vertex 175.65000000000003 3.0000000000000058 3.0000000000000226
vertex 175.65000000000003 5.572383579196434 11.670628594077343
vertex 175.65000000000003 3.0000000000000115 2.8199664825478976e-14
endloop
endfacet
facet normal -1.0 -7.662105760601037e-20 -1.7140913034218572e-16
outer loop
vertex 175.65000000000003 3.0000000000000115 2.8199664825478976e-14
vertex 175.65000000000003 5.572383579196434 11.670628594077343
vertex 175.65000000000003 9.541725679407202 7.636038969321101
endloop
endfacet
facet normal -1.0 -7.662105760601037e-20 -1.7140913034218572e-16
outer loop
vertex 175.65000000000003 3.0000000000000115 2.8199664825478976e-14
vertex 175.65000000000003 9.541725679407202 7.636038969321101
vertex 175.65000000000003 11.405686710086131 6.205771365940084
endloop
endfacet
facet normal -1.0 -7.662105760601037e-20 -1.7140913034218572e-16
outer loop
vertex 175.65000000000003 3.0000000000000115 2.8199664825478976e-14
vertex 175.65000000000003 11.405686710086131 6.205771365940084
vertex 175.65000000000003 13.576315304163444 5.306667563398425
endloop
endfacet
facet normal -1.0 -7.662105760601037e-20 -1.7140913034218572e-16
outer loop
vertex 175.65000000000003 3.0000000000000115 2.8199664825478976e-14
vertex 175.65000000000003 13.576315304163444 5.306667563398425
vertex 175.65000000000003 29.000000000000004 5.0759396685862156e-14
endloop
endfacet
facet normal -1.0 -7.662105760601037e-20 -1.7140913034218572e-16
outer loop
vertex 175.65000000000003 9.541725679407202 7.636038969321101
vertex 175.65000000000003 5.572383579196434 11.670628594077343
vertex 175.65000000000003 8.878785064005129 8.500000000000037
endloop
endfacet
facet normal -1.0 -7.662105760601037e-20 -1.7140913034218572e-16
outer loop
vertex 175.65000000000003 8.878785064005129 8.500000000000037
vertex 175.65000000000003 5.572383579196434 11.670628594077343
vertex 175.65000000000003 8.11145807602618 9.500000000000036
endloop
endfacet
facet normal -1.0 -7.662105760601037e-20 -1.7140913034218572e-16
outer loop
vertex 175.65000000000003 8.11145807602618 9.500000000000036
vertex 175.65000000000003 5.572383579196434 11.670628594077343
vertex 175.65000000000003 7.212354273484508 11.670628594077352
endloop
endfacet
facet normal -1.0 -7.662105760601037e-20 -1.7140913034218572e-16
outer loop
vertex 175.65000000000003 29.000000000000004 5.0759396685862156e-14
vertex 175.65000000000003 13.576315304163444 5.306667563398425
vertex 175.65000000000003 15.905686710086135 5.000000000000039
endloop
endfacet
facet normal -1.0 -7.662105760601037e-20 -1.7140913034218572e-16
outer loop
vertex 175.65000000000003 29.000000000000004 5.0759396685862156e-14
vertex 175.65000000000003 15.905686710086135 5.000000000000039
vertex 175.65000000000003 18.235058116008826 5.3066675633984275
endloop
endfacet
facet normal -1.0 -7.662105760601037e-20 -1.7140913034218572e-16
outer loop
vertex 175.65000000000003 29.000000000000004 5.0759396685862156e-14
vertex 175.65000000000003 18.235058116008826 5.3066675633984275
vertex 175.65000000000003 20.405686710086133 6.205771365940098
endloop
endfacet
facet normal -1.0 -7.662105760601037e-20 -1.7140913034218572e-16
outer loop
vertex 175.65000000000003 29.000000000000004 5.0759396685862156e-14
vertex 175.65000000000003 20.405686710086133 6.205771365940098
vertex 175.65000000000003 22.26964774076506 7.636038969321119
endloop
endfacet
facet normal -1.0 -7.662105760601037e-20 -1.7140913034218572e-16
outer loop
vertex 175.65000000000003 29.000000000000004 5.0759396685862156e-14
vertex 175.65000000000003 22.26964774076506 7.636038969321119
vertex 175.65000000000003 22.932588356167116 8.500000000000046
endloop
endfacet
facet normal -1.0 -7.662105760601037e-20 -1.7140913034218572e-16
outer loop
vertex 175.65000000000003 29.000000000000004 5.0759396685862156e-14
vertex 175.65000000000003 22.932588356167116 8.500000000000046
vertex 175.65000000000003 23.699915344146078 9.500000000000044
endloop
endfacet
facet normal -1.0 -7.662105760601037e-20 -1.7140913034218572e-16
outer loop
vertex 175.65000000000003 29.000000000000004 5.0759396685862156e-14
vertex 175.65000000000003 23.699915344146078 9.500000000000044
vertex 175.65000000000003 24.59901914668774 11.67062859407736
endloop
endfacet
facet normal -1.0 -7.662105760601037e-20 -1.7140913034218572e-16
outer loop
vertex 175.65000000000003 29.000000000000004 5.0759396685862156e-14
vertex 175.65000000000003 24.59901914668774 11.67062859407736
vertex 175.65000000000003 26.325981256237938 11.670628594077362
endloop
endfacet
facet normal -1.0 -7.662105760601037e-20 -1.7140913034218572e-16
outer loop
vertex 175.65000000000003 29.000000000000004 5.0759396685862156e-14
vertex 175.65000000000003 26.325981256237938 11.670628594077362
vertex 175.65000000000003 28.999999999999996 3.000000000000051
endloop
endfacet
facet normal -1.8075151528321254e-20 -1.0 -8.881784197001252e-16
outer loop
vertex 175.65000000000003 3.0000000000000115 2.8199664825478976e-14
vertex 129.65 3.0000000000000058 3.0000000000000115
vertex 129.65 3.0000000000000115 1.6919798895287383e-14
endloop
endfacet
facet normal -1.8075151528321254e-20 -1.0 -8.881784197001252e-16
outer loop
vertex 129.65 3.0000000000000058 3.0000000000000115
vertex 175.65000000000003 3.0000000000000115 2.8199664825478976e-14
vertex 175.65000000000003 3.0000000000000058 3.0000000000000226
endloop
endfacet
facet normal 2.2201706686960277e-17 0.9238795325112862 0.3826834323650915
outer loop
vertex 121.0 7.212354273484508 11.670628594077339
vertex 129.65 8.11145807602618 9.500000000000028
vertex 121.0 8.11145807602618 9.500000000000025
endloop
endfacet
facet normal 1.2358553513057676e-17 0.8660254037844387 0.5
outer loop
vertex 129.65 8.11145807602618 9.500000000000028
vertex 121.0 7.212354273484508 11.670628594077339
vertex 129.65 7.212354273484508 11.670628594077337
endloop
endfacet
facet normal 4.677528343919648e-16 -8.019998906082215e-16 1.0
outer loop
vertex 129.65 15.905686710086135 5.000000000000025
vertex 121.0 18.235058116008826 5.306667563398416
vertex 121.0 15.905686710086135 5.0000000000000275
endloop
endfacet
facet normal 3.525510378948729e-16 -0.2588190451025222 0.9659258262890681
outer loop
vertex 121.0 18.235058116008826 5.306667563398416
vertex 129.65 15.905686710086135 5.000000000000025
vertex 129.65 18.235058116008826 5.306667563398413
endloop
endfacet
facet normal -2.422472066967979e-16 -0.25881904510252224 0.9659258262890681
outer loop
vertex 178.65000000000003 18.235058116008826 5.3066675633984275
vertex 175.65000000000003 20.405686710086133 6.205771365940098
vertex 175.65000000000003 18.235058116008826 5.3066675633984275
endloop
endfacet
facet normal -2.1719774694782877e-16 -0.5000000000000012 0.8660254037844382
outer loop
vertex 175.65000000000003 20.405686710086133 6.205771365940098
vertex 178.65000000000003 18.235058116008826 5.3066675633984275
vertex 178.65000000000003 20.405686710086133 6.205771365940098
endloop
endfacet
facet normal -2.1719774694782877e-16 -0.5000000000000012 0.8660254037844382
outer loop
vertex 178.65000000000003 20.405686710086133 6.205771365940098
vertex 175.65000000000003 22.26964774076506 7.636038969321119
vertex 175.65000000000003 20.405686710086133 6.205771365940098
endloop
endfacet
facet normal -3.7616549058908117e-16 -0.7071067811865478 0.7071067811865472
outer loop
vertex 175.65000000000003 22.26964774076506 7.636038969321119
vertex 178.65000000000003 20.405686710086133 6.205771365940098
vertex 178.65000000000003 22.26964774076506 7.636038969321121
endloop
endfacet
facet normal 2.3039420621082975e-18 0.7933533402912363 0.6087614290087194
outer loop
vertex 121.0 8.878785064005129 8.500000000000027
vertex 129.65 9.541725679407202 7.63603896932109
vertex 121.0 9.541725679407202 7.63603896932109
endloop
endfacet
facet normal 1.344307517866496e-17 0.7071067811865478 0.7071067811865474
outer loop
vertex 129.65 9.541725679407202 7.63603896932109
vertex 121.0 8.878785064005129 8.500000000000027
vertex 129.65 8.878785064005129 8.500000000000027
endloop
endfacet
facet normal 2.3039420621082975e-18 0.7933533402912363 0.6087614290087194
outer loop
vertex 129.65 8.878785064005129 8.500000000000027
vertex 121.0 8.878785064005129 8.500000000000027
vertex 121.0 8.11145807602618 9.500000000000025
endloop
endfacet
facet normal 2.3039420621082975e-18 0.7933533402912363 0.6087614290087194
outer loop
vertex 129.65 8.878785064005129 8.500000000000027
vertex 121.0 8.11145807602618 9.500000000000025
vertex 129.65 8.11145807602618 9.500000000000028
endloop
endfacet
facet normal -3.718417282571129e-16 0.9238795325112862 0.3826834323650911
outer loop
vertex 175.65000000000003 7.212354273484508 11.670628594077352
vertex 178.65000000000003 8.11145807602618 9.500000000000043
vertex 175.65000000000003 8.11145807602618 9.500000000000036
endloop
endfacet
facet normal -4.767687174214633e-16 0.8660254037844388 0.49999999999999994
outer loop
vertex 178.65000000000003 8.11145807602618 9.500000000000043
vertex 175.65000000000003 7.212354273484508 11.670628594077352
vertex 178.65000000000003 7.212354273484508 11.670628594077352
endloop
endfacet
facet normal -3.8957814097322105e-16 0.7071067811865477 0.7071067811865475
outer loop
vertex 178.65000000000003 9.541725679407202 7.636038969321104
vertex 175.65000000000003 11.405686710086131 6.205771365940084
vertex 175.65000000000003 9.541725679407202 7.636038969321101
endloop
endfacet
facet normal -2.1717967179630047e-16 0.4999999999999991 0.8660254037844393
outer loop
vertex 175.65000000000003 11.405686710086131 6.205771365940084
vertex 178.65000000000003 9.541725679407202 7.636038969321104
vertex 178.65000000000003 11.405686710086131 6.205771365940084
endloop
endfacet
facet normal -4.013465657472896e-31 1.0 1.8799776550319318e-15
outer loop
vertex 71.99999999999999 5.639932965095795e-15 3.0
vertex 178.65000000000003 1.127986593019159e-14 2.255973186038318e-14
vertex 71.99999999999999 1.127986593019159e-14 0.0
endloop
endfacet
facet normal -4.013465657472896e-31 1.0 1.8799776550319318e-15
outer loop
vertex 178.65000000000003 1.127986593019159e-14 2.255973186038318e-14
vertex 71.99999999999999 5.639932965095795e-15 3.0
vertex 75.0 5.639932965095795e-15 3.0
endloop
endfacet
facet normal -4.013465657472896e-31 1.0 1.8799776550319318e-15
outer loop
vertex 178.65000000000003 1.127986593019159e-14 2.255973186038318e-14
vertex 75.0 5.639932965095795e-15 3.0
vertex 129.65 5.639932965095795e-15 3.0000000000000115
endloop
endfacet
facet normal -4.013465657472896e-31 1.0 1.8799776550319318e-15
outer loop
vertex 178.65000000000003 1.127986593019159e-14 2.255973186038318e-14
vertex 129.65 5.639932965095795e-15 3.0000000000000115
vertex 178.65000000000003 5.639932965095795e-15 3.0000000000000226
endloop
endfacet
facet normal -4.013465657472896e-31 1.0 1.8799776550319318e-15
outer loop
vertex 129.65 5.639932965095795e-15 3.0000000000000115
vertex 75.0 5.639932965095795e-15 3.0
vertex 121.0 5.639932965095795e-15 3.0000000000000115
endloop
endfacet
facet normal -4.013465657472896e-31 1.0 1.8799776550319318e-15
outer loop
vertex 178.65000000000003 5.639932965095795e-15 3.0000000000000226
vertex 129.65 5.639932965095795e-15 3.0000000000000115
vertex 175.65000000000003 5.639932965095795e-15 3.0000000000000226
endloop
endfacet
facet normal 4.395748210375642e-16 0.2588190451025194 0.9659258262890688
outer loop
vertex 129.65 13.576315304163444 5.306667563398408
vertex 121.0 15.905686710086135 5.0000000000000275
vertex 121.0 13.576315304163444 5.306667563398413
endloop
endfacet
facet normal 4.677528343919648e-16 -8.019998906082215e-16 1.0
outer loop
vertex 121.0 15.905686710086135 5.0000000000000275
vertex 129.65 13.576315304163444 5.306667563398408
vertex 129.65 15.905686710086135 5.000000000000025
endloop
endfacet
facet normal 6.456357664479617e-17 -2.8658708072951975e-15 1.0
outer loop
vertex 129.65000000000003 5.572383579196434 11.670628594077334
vertex 121.0 7.212354273484508 11.670628594077339
vertex 121.0 5.572383579196434 11.670628594077332
endloop
endfacet
facet normal 6.456357664479617e-17 -2.8658708072951975e-15 1.0
outer loop
vertex 121.0 7.212354273484508 11.670628594077339
vertex 129.65000000000003 5.572383579196434 11.670628594077334
vertex 129.65 7.212354273484508 11.670628594077337
endloop
endfacet
facet normal 3.3765847778094396e-18 -0.8660254037844394 0.4999999999999989
outer loop
vertex 129.65 23.699915344146078 9.500000000000039
vertex 121.0 24.59901914668774 11.670628594077348
vertex 121.0 23.699915344146078 9.500000000000034
endloop
endfacet
facet normal -9.435725341958037e-17 -0.9238795325112875 0.38268343236508817
outer loop
vertex 121.0 24.59901914668774 11.670628594077348
vertex 129.65 23.699915344146078 9.500000000000039
vertex 129.65 24.59901914668774 11.670628594077348
endloop
endfacet
facet normal 1.344307517866496e-17 0.7071067811865478 0.7071067811865474
outer loop
vertex 129.65 9.541725679407202 7.63603896932109
vertex 121.0 11.405686710086131 6.205771365940072
vertex 121.0 9.541725679407202 7.63603896932109
endloop
endfacet
facet normal 1.7446767610523064e-16 0.4999999999999987 0.8660254037844395
outer loop
vertex 121.0 11.405686710086131 6.205771365940072
vertex 129.65 9.541725679407202 7.63603896932109
vertex 129.65 11.405686710086131 6.205771365940072
endloop
endfacet
facet normal -1.190776747157782e-15 -2.6077009040772418e-15 1.0
outer loop
vertex 178.65000000000003 5.572383579196434 11.670628594077348
vertex 175.65000000000003 7.212354273484508 11.670628594077352
vertex 175.65000000000003 5.572383579196434 11.670628594077343
endloop
endfacet
facet normal -1.190776747157782e-15 -2.6077009040772418e-15 1.0
outer loop
vertex 175.65000000000003 7.212354273484508 11.670628594077352
vertex 178.65000000000003 5.572383579196434 11.670628594077348
vertex 178.65000000000003 7.212354273484508 11.670628594077352
endloop
endfacet
facet normal 1.0105264867348481e-16 -0.7933533402912355 0.6087614290087201
outer loop
vertex 129.65 22.932588356167116 8.50000000000003
vertex 121.0 22.26964774076506 7.636038969321107
vertex 129.65 22.26964774076506 7.636038969321104
endloop
endfacet
facet normal 2.018410890899416e-16 -0.7071067811865483 0.7071067811865468
outer loop
vertex 121.0 22.26964774076506 7.636038969321107
vertex 129.65 22.932588356167116 8.50000000000003
vertex 121.0 22.932588356167116 8.500000000000036
endloop
endfacet
facet normal 1.0105264867348481e-16 -0.7933533402912355 0.6087614290087201
outer loop
vertex 121.0 22.932588356167116 8.500000000000036
vertex 129.65 22.932588356167116 8.50000000000003
vertex 129.65 23.699915344146078 9.500000000000039
endloop
endfacet
facet normal 1.0105264867348481e-16 -0.7933533402912355 0.6087614290087201
outer loop
vertex 121.0 22.932588356167116 8.500000000000036
vertex 129.65 23.699915344146078 9.500000000000039
vertex 121.0 23.699915344146078 9.500000000000034
endloop
endfacet
facet normal 1.8075151528343354e-20 1.0 8.000544671205034e-16
outer loop
vertex 129.65 28.999999999999996 3.0000000000000395
vertex 175.65000000000003 29.000000000000004 5.0759396685862156e-14
vertex 129.65 29.000000000000004 3.947953075567056e-14
endloop
endfacet
facet normal 1.8075151528343354e-20 1.0 8.000544671205034e-16
outer loop
vertex 175.65000000000003 29.000000000000004 5.0759396685862156e-14
vertex 129.65 28.999999999999996 3.0000000000000395
vertex 175.65000000000003 28.999999999999996 3.000000000000051
endloop
endfacet
facet normal 1.7446767610523064e-16 0.4999999999999987 0.8660254037844395
outer loop
vertex 129.65 11.405686710086131 6.205771365940072
vertex 121.0 13.576315304163444 5.306667563398413
vertex 121.0 11.405686710086131 6.205771365940072
endloop
endfacet
facet normal 4.395748210375641e-16 0.25881904510251935 0.9659258262890688
outer loop
vertex 121.0 13.576315304163444 5.306667563398413
vertex 129.65 11.405686710086131 6.205771365940072
vertex 129.65 13.576315304163444 5.306667563398408
endloop
endfacet
facet normal 3.525510378948729e-16 -0.2588190451025222 0.9659258262890681
outer loop
vertex 129.65 18.235058116008826 5.306667563398413
vertex 121.0 20.405686710086133 6.205771365940087
vertex 121.0 18.235058116008826 5.306667563398416
endloop
endfacet
facet normal 3.1306528736247343e-16 -0.5000000000000017 0.8660254037844379
outer loop
vertex 121.0 20.405686710086133 6.205771365940087
vertex 129.65 18.235058116008826 5.306667563398413
vertex 129.65 20.405686710086133 6.205771365940084
endloop
endfacet
facet normal 4.083922489455787e-31 -1.0 -1.8799776550319314e-15
outer loop
vertex 178.65000000000003 32.00000000000001 5.0759396685862156e-14
vertex 71.99999999999999 32.0 3.0000000000000284
vertex 71.99999999999999 32.00000000000001 2.8199664825478976e-14
endloop
endfacet
facet normal 4.083922489455787e-31 -1.0 -1.8799776550319314e-15
outer loop
vertex 71.99999999999999 32.0 3.0000000000000284
vertex 178.65000000000003 32.00000000000001 5.0759396685862156e-14
vertex 74.99999999999999 32.0 3.0000000000000284
endloop
endfacet
facet normal 4.083922489455787e-31 -1.0 -1.8799776550319314e-15
outer loop
vertex 178.65000000000003 32.00000000000001 5.0759396685862156e-14
vertex 129.65 32.0 3.0000000000000395
vertex 74.99999999999999 32.0 3.0000000000000284
endloop
endfacet
facet normal 4.083922489455787e-31 -1.0 -1.8799776550319314e-15
outer loop
vertex 129.65 32.0 3.0000000000000395
vertex 178.65000000000003 32.00000000000001 5.0759396685862156e-14
vertex 178.65000000000003 32.0 3.000000000000051
endloop
endfacet
facet normal 4.083922489455787e-31 -1.0 -1.8799776550319314e-15
outer loop
vertex 129.65 32.0 3.0000000000000395
vertex 178.65000000000003 32.0 3.000000000000051
vertex 175.65000000000003 32.0 3.000000000000051
endloop
endfacet
facet normal 4.083922489455787e-31 -1.0 -1.8799776550319314e-15
outer loop
vertex 121.0 32.0 3.0000000000000395
vertex 74.99999999999999 32.0 3.0000000000000284
vertex 129.65 32.0 3.0000000000000395
endloop
endfacet
facet normal 3.1306528736247343e-16 -0.5000000000000016 0.8660254037844378
outer loop
vertex 129.65 20.405686710086133 6.205771365940084
vertex 121.0 22.26964774076506 7.636038969321107
vertex 121.0 20.405686710086133 6.205771365940087
endloop
endfacet
facet normal 2.018410890899416e-16 -0.7071067811865483 0.7071067811865468
outer loop
vertex 121.0 22.26964774076506 7.636038969321107
vertex 129.65 20.405686710086133 6.205771365940084
vertex 129.65 22.26964774076506 7.636038969321104
endloop
endfacet
facet normal 7.103079175306673e-17 0.8367590790449502 0.5475712224321572
outer loop
vertex 121.0 26.325981256237938 11.670628594077352
vertex 129.65 32.0 3.0000000000000395
vertex 121.0 32.0 3.0000000000000395
endloop
endfacet
facet normal 7.103079175306673e-17 0.8367590790449502 0.5475712224321572
outer loop
vertex 129.65 32.0 3.0000000000000395
vertex 121.0 26.325981256237938 11.670628594077352
vertex 129.65 26.325981256237938 11.670628594077348
endloop
endfacet
facet normal 2.1148701346919927e-16 8.812395257962178e-16 -1.0
outer loop
vertex 71.99999999999999 32.00000000000001 2.8199664825478976e-14
vertex 74.99999999999999 29.000000000000004 2.8199664825478976e-14
vertex 71.99999999999999 1.127986593019159e-14 0.0
endloop
endfacet
facet normal 2.1148701346919927e-16 8.812395257962178e-16 -1.0
outer loop
vertex 74.99999999999999 29.000000000000004 2.8199664825478976e-14
vertex 71.99999999999999 32.00000000000001 2.8199664825478976e-14
vertex 178.65000000000003 32.00000000000001 5.0759396685862156e-14
endloop
endfacet
facet normal 2.1148701346919927e-16 8.812395257962178e-16 -1.0
outer loop
vertex 74.99999999999999 29.000000000000004 2.8199664825478976e-14
vertex 178.65000000000003 32.00000000000001 5.0759396685862156e-14
vertex 121.0 29.000000000000004 3.947953075567056e-14
endloop
endfacet
facet normal 2.1148701346919927e-16 8.812395257962178e-16 -1.0
outer loop
vertex 121.0 29.000000000000004 3.947953075567056e-14
vertex 178.65000000000003 32.00000000000001 5.0759396685862156e-14
vertex 129.65 29.000000000000004 3.947953075567056e-14
endloop
endfacet
facet normal 2.1148701346919927e-16 8.812395257962178e-16 -1.0
outer loop
vertex 121.0 29.000000000000004 3.947953075567056e-14
vertex 129.65 29.000000000000004 3.947953075567056e-14
vertex 121.0 3.0000000000000115 1.6919798895287383e-14
endloop
endfacet
facet normal 2.1148701346919927e-16 8.812395257962178e-16 -1.0
outer loop
vertex 129.65 29.000000000000004 3.947953075567056e-14
vertex 178.65000000000003 32.00000000000001 5.0759396685862156e-14
vertex 175.65000000000003 29.000000000000004 5.0759396685862156e-14
endloop
endfacet
facet normal 2.1148701346919927e-16 8.812395257962178e-16 -1.0
outer loop
vertex 175.65000000000003 29.000000000000004 5.0759396685862156e-14
vertex 178.65000000000003 32.00000000000001 5.0759396685862156e-14
vertex 175.65000000000003 3.0000000000000115 2.8199664825478976e-14
endloop
endfacet
facet normal 2.1148701346919927e-16 8.812395257962178e-16 -1.0
outer loop
vertex 71.99999999999999 1.127986593019159e-14 0.0
vertex 74.99999999999999 3.0000000000000115 5.639932965095795e-15
vertex 178.65000000000003 1.127986593019159e-14 2.255973186038318e-14
endloop
endfacet
facet normal 2.1148701346919927e-16 8.812395257962178e-16 -1.0
outer loop
vertex 74.99999999999999 3.0000000000000115 5.639932965095795e-15
vertex 71.99999999999999 1.127986593019159e-14 0.0
vertex 74.99999999999999 29.000000000000004 2.8199664825478976e-14
endloop
endfacet
facet normal 2.1148701346919927e-16 8.812395257962178e-16 -1.0
outer loop
vertex 178.65000000000003 1.127986593019159e-14 2.255973186038318e-14
vertex 74.99999999999999 3.0000000000000115 5.639932965095795e-15
vertex 121.0 3.0000000000000115 1.6919798895287383e-14
endloop
endfacet
facet normal 2.1148701346919927e-16 8.812395257962178e-16 -1.0
outer loop
vertex 178.65000000000003 1.127986593019159e-14 2.255973186038318e-14
vertex 121.0 3.0000000000000115 1.6919798895287383e-14
vertex 129.65 3.0000000000000115 1.6919798895287383e-14
endloop
endfacet
facet normal 2.1148701346919927e-16 8.812395257962178e-16 -1.0
outer loop
vertex 129.65 3.0000000000000115 1.6919798895287383e-14
vertex 121.0 3.0000000000000115 1.6919798895287383e-14
vertex 129.65 29.000000000000004 3.947953075567056e-14
endloop
endfacet
facet normal 2.1148701346919927e-16 8.812395257962178e-16 -1.0
outer loop
vertex 178.65000000000003 1.127986593019159e-14 2.255973186038318e-14
vertex 129.65 3.0000000000000115 1.6919798895287383e-14
vertex 175.65000000000003 3.0000000000000115 2.8199664825478976e-14
endloop
endfacet
facet normal 2.1148701346919927e-16 8.812395257962178e-16 -1.0
outer loop
vertex 178.65000000000003 1.127986593019159e-14 2.255973186038318e-14
vertex 175.65000000000003 3.0000000000000115 2.8199664825478976e-14
vertex 178.65000000000003 32.00000000000001 5.0759396685862156e-14
endloop
endfacet
facet normal 2.3876341551660493e-16 -1.088603881136447e-15 1.0
outer loop
vertex 129.65 24.59901914668774 11.670628594077348
vertex 121.0 26.325981256237938 11.670628594077352
vertex 121.0 24.59901914668774 11.670628594077348
endloop
endfacet
facet normal 2.3876341551660493e-16 -1.088603881136447e-15 1.0
outer loop
vertex 121.0 26.325981256237938 11.670628594077352
vertex 129.65 24.59901914668774 11.670628594077348
vertex 129.65 26.325981256237938 11.670628594077348
endloop
endfacet
facet normal 1.0 9.317615090509326e-17 -5.041551035754152e-16
outer loop
vertex 129.65 3.0000000000000058 3.0000000000000115
vertex 129.65000000000003 5.572383579196434 11.670628594077334
vertex 129.65 5.639932965095795e-15 3.0000000000000115
endloop
endfacet
facet normal 1.0 9.317615090509326e-17 -5.041551035754152e-16
outer loop
vertex 129.65000000000003 5.572383579196434 11.670628594077334
vertex 129.65 3.0000000000000058 3.0000000000000115
vertex 129.65 3.0000000000000115 1.6919798895287383e-14
endloop
endfacet
facet normal 1.0 9.317615090509326e-17 -5.041551035754152e-16
outer loop
vertex 129.65000000000003 5.572383579196434 11.670628594077334
vertex 129.65 3.0000000000000115 1.6919798895287383e-14
vertex 129.65 9.541725679407202 7.63603896932109
endloop
endfacet
facet normal 1.0 9.317615090509326e-17 -5.041551035754152e-16
outer loop
vertex 129.65 9.541725679407202 7.63603896932109
vertex 129.65 3.0000000000000115 1.6919798895287383e-14
vertex 129.65 11.405686710086131 6.205771365940072
endloop
endfacet
facet normal 1.0 9.317615090509326e-17 -5.041551035754152e-16
outer loop
vertex 129.65 11.405686710086131 6.205771365940072
vertex 129.65 3.0000000000000115 1.6919798895287383e-14
vertex 129.65 13.576315304163444 5.306667563398408
endloop
endfacet
facet normal 1.0 9.317615090509326e-17 -5.041551035754152e-16
outer loop
vertex 129.65 13.576315304163444 5.306667563398408
vertex 129.65 3.0000000000000115 1.6919798895287383e-14
vertex 129.65 29.000000000000004 3.947953075567056e-14
endloop
endfacet
facet normal 1.0 9.317615090509326e-17 -5.041551035754152e-16
outer loop
vertex 129.65000000000003 5.572383579196434 11.670628594077334
vertex 129.65 9.541725679407202 7.63603896932109
vertex 129.65 8.878785064005129 8.500000000000027
endloop
endfacet
facet normal 1.0 9.317615090509326e-17 -5.041551035754152e-16
outer loop
vertex 129.65000000000003 5.572383579196434 11.670628594077334
vertex 129.65 8.878785064005129 8.500000000000027
vertex 129.65 8.11145807602618 9.500000000000028
endloop
endfacet
facet normal 1.0 9.317615090509326e-17 -5.041551035754152e-16
outer loop
vertex 129.65000000000003 5.572383579196434 11.670628594077334
vertex 129.65 8.11145807602618 9.500000000000028
vertex 129.65 7.212354273484508 11.670628594077337
endloop
endfacet
facet normal 1.0 9.317615090509326e-17 -5.041551035754152e-16
outer loop
vertex 129.65 13.576315304163444 5.306667563398408
vertex 129.65 29.000000000000004 3.947953075567056e-14
vertex 129.65 15.905686710086135 5.000000000000025
endloop
endfacet
facet normal 1.0 9.317615090509326e-17 -5.041551035754152e-16
outer loop
vertex 129.65 15.905686710086135 5.000000000000025
vertex 129.65 29.000000000000004 3.947953075567056e-14
vertex 129.65 18.235058116008826 5.306667563398413
endloop
endfacet
facet normal 1.0 9.317615090509326e-17 -5.041551035754152e-16
outer loop
vertex 129.65 18.235058116008826 5.306667563398413
vertex 129.65 29.000000000000004 3.947953075567056e-14
vertex 129.65 20.405686710086133 6.205771365940084
endloop
endfacet
facet normal 1.0 9.317615090509326e-17 -5.041551035754152e-16
outer loop
vertex 129.65 20.405686710086133 6.205771365940084
vertex 129.65 29.000000000000004 3.947953075567056e-14
vertex 129.65 22.26964774076506 7.636038969321104
endloop
endfacet
facet normal 1.0 9.317615090509326e-17 -5.041551035754152e-16
outer loop
vertex 129.65 22.26964774076506 7.636038969321104
vertex 129.65 29.000000000000004 3.947953075567056e-14
vertex 129.65 22.932588356167116 8.50000000000003
endloop
endfacet
facet normal 1.0 9.317615090509326e-17 -5.041551035754152e-16
outer loop
vertex 129.65 22.932588356167116 8.50000000000003
vertex 129.65 29.000000000000004 3.947953075567056e-14
vertex 129.65 23.699915344146078 9.500000000000039
endloop
endfacet
facet normal 1.0 9.317615090509326e-17 -5.041551035754152e-16
outer loop
vertex 129.65 23.699915344146078 9.500000000000039
vertex 129.65 29.000000000000004 3.947953075567056e-14
vertex 129.65 24.59901914668774 11.670628594077348
endloop
endfacet
facet normal 1.0 9.317615090509326e-17 -5.041551035754152e-16
outer loop
vertex 129.65 24.59901914668774 11.670628594077348
vertex 129.65 29.000000000000004 3.947953075567056e-14
vertex 129.65 26.325981256237938 11.670628594077348
endloop
endfacet
facet normal 1.0 9.317615090509326e-17 -5.041551035754152e-16
outer loop
vertex 129.65 26.325981256237938 11.670628594077348
vertex 129.65 29.000000000000004 3.947953075567056e-14
vertex 129.65 28.999999999999996 3.0000000000000395
endloop
endfacet
facet normal 1.0 9.317615090509326e-17 -5.041551035754152e-16
outer loop
vertex 129.65 32.0 3.0000000000000395
vertex 129.65 26.325981256237938 11.670628594077348
vertex 129.65 28.999999999999996 3.0000000000000395
endloop
endfacet
facet normal 2.6611382443827375e-16 -6.393034250133191e-16 -1.0
outer loop
vertex 175.65000000000003 3.0000000000000058 3.0000000000000226
vertex 129.65 5.639932965095795e-15 3.0000000000000115
vertex 129.65 3.0000000000000058 3.0000000000000115
endloop
endfacet
facet normal 2.6611382443827375e-16 -6.393034250133191e-16 -1.0
outer loop
vertex 129.65 5.639932965095795e-15 3.0000000000000115
vertex 175.65000000000003 3.0000000000000058 3.0000000000000226
vertex 175.65000000000003 5.639932965095795e-15 3.0000000000000226
endloop
endfacet
facet normal -6.950746047696761e-17 -0.8412487257985327 0.5406482972712898
outer loop
vertex 129.65000000000003 5.572383579196434 11.670628594077334
vertex 121.0 5.639932965095795e-15 3.0000000000000115
vertex 129.65 5.639932965095795e-15 3.0000000000000115
endloop
endfacet
facet normal -6.950746047696761e-17 -0.8412487257985327 0.5406482972712898
outer loop
vertex 121.0 5.639932965095795e-15 3.0000000000000115
vertex 129.65000000000003 5.572383579196434 11.670628594077334
vertex 121.0 5.572383579196434 11.670628594077332
endloop
endfacet
endsolid Soporte Sensor
